<svg width="24" height="24" viewBox="0 0 24 24" fill="none" xmlns="http://www.w3.org/2000/svg">
<g id="online-banking 1">
<g id="Group">
<path id="Vector" d="M23.2969 19.0313H0.703125C0.314812 19.0313 0 19.346 0 19.7344C0 20.8994 0.944391 21.8438 2.10938 21.8438H21.8906C23.0556 21.8438 24 20.8994 24 19.7344C24 19.346 23.6852 19.0313 23.2969 19.0313Z" fill="#7264D6"/>
<path id="Vector_2" d="M17.625 5.67194V5.32038C17.625 5.05394 17.4746 4.81089 17.2364 4.69141L12.3145 2.23047C12.1167 2.13161 11.8833 2.13161 11.6855 2.23047L6.76364 4.69141C6.52538 4.81089 6.375 5.05394 6.375 5.32038V5.67194C6.375 6.06058 6.68948 6.37506 7.07812 6.37506H16.9219C17.3105 6.37506 17.625 6.06058 17.625 5.67194Z" fill="#7264D6"/>
<path id="Vector_3" d="M8.48438 7.78125H11.2969V13.4062H8.48438V7.78125Z" fill="#7264D6"/>
<path id="Vector_4" d="M12.7031 7.78125H15.5156V13.4062H12.7031V7.78125Z" fill="#7264D6"/>
<path id="Vector_5" d="M5.01759 4.96875H2.10938C1.72073 4.96875 1.40625 5.28323 1.40625 5.67188V17.625H22.5938V5.67188C22.5938 5.28323 22.2793 4.96875 21.8906 4.96875H18.9824C19.002 5.08523 19.0312 5.19919 19.0312 5.32031V5.67188C19.0312 6.83503 18.085 7.78125 16.9219 7.78125V13.4062H17.625C18.0136 13.4062 18.3281 13.7207 18.3281 14.1094C18.3281 14.498 18.0136 14.8125 17.625 14.8125H6.375C5.98636 14.8125 5.67188 14.498 5.67188 14.1094C5.67188 13.7207 5.98636 13.4062 6.375 13.4062H7.07812V7.78125C5.91497 7.78125 4.96875 6.83503 4.96875 5.67188V5.32031C4.96875 5.19919 4.99795 5.08523 5.01759 4.96875Z" fill="#7264D6"/>
</g>
</g>
</svg>
