<svg width="64" height="64" viewBox="0 0 64 64" fill="none" xmlns="http://www.w3.org/2000/svg">
<rect width="64" height="64" rx="8" fill="#7264D6"/>
<rect x="12" y="12" width="40" height="40" rx="4" fill="#F8FBFE"/>
<path d="M44.9745 40.5386H18.8143C18.3647 40.5386 18.0002 40.903 18.0002 41.3527C18.0002 42.7016 19.0937 43.795 20.4426 43.795H43.3463C44.6951 43.795 45.7886 42.7016 45.7886 41.3527C45.7886 40.903 45.4241 40.5386 44.9745 40.5386Z" fill="#7264D6"/>
<path d="M38.4075 25.0705V24.6635C38.4075 24.355 38.2334 24.0736 37.9575 23.9352L32.2587 21.0858C32.0298 20.9714 31.7595 20.9714 31.5305 21.0858L25.8317 23.9352C25.5558 24.0736 25.3817 24.355 25.3817 24.6635V25.0705C25.3817 25.5205 25.7458 25.8847 26.1958 25.8847H37.5934C38.0434 25.8847 38.4075 25.5205 38.4075 25.0705Z" fill="#7264D6"/>
<path d="M27.824 27.5128H31.0804V34.0257H27.824V27.5128Z" fill="#7264D6"/>
<path d="M32.7084 27.5128H35.9649V34.0257H32.7084V27.5128Z" fill="#7264D6"/>
<path d="M23.8099 24.2563H20.4427C19.9927 24.2563 19.6285 24.6205 19.6285 25.0705V38.9104H44.1605V25.0705C44.1605 24.6205 43.7963 24.2563 43.3464 24.2563H39.9791C40.0018 24.3912 40.0356 24.5232 40.0356 24.6634V25.0705C40.0356 26.4172 38.9401 27.5128 37.5933 27.5128V34.0257H38.4074C38.8574 34.0257 39.2215 34.3898 39.2215 34.8398C39.2215 35.2898 38.8574 35.6539 38.4074 35.6539H25.3816C24.9316 35.6539 24.5675 35.2898 24.5675 34.8398C24.5675 34.3898 24.9316 34.0257 25.3816 34.0257H26.1957V27.5128C24.849 27.5128 23.7534 26.4172 23.7534 25.0705V24.6634C23.7534 24.5232 23.7872 24.3912 23.8099 24.2563Z" fill="#7264D6"/>
</svg>
