<svg width="63" height="48" viewBox="0 0 63 48" fill="none" xmlns="http://www.w3.org/2000/svg">
<rect width="63" height="48" rx="4" fill="#F2F2FA"/>
<path d="M52 24C52 30.5846 46.6462 36 40 36C33.4154 36 28 30.5846 28 24C28 17.4154 33.3538 12 39.9385 12C46.6462 12 52 17.4154 52 24Z" fill="#F9B50B"/>
<path d="M35.9385 24.0615C35.9385 23.2 35.8154 22.3385 35.6923 21.5385H28.3077C28.3692 21.1077 28.4923 20.7385 28.6154 20.2462H35.2C35.0769 19.8154 34.8923 19.3846 34.7077 18.9538H29.1077C29.2923 18.5231 29.5385 18.1538 29.7846 17.6615H34.0308C33.7846 17.2308 33.4769 16.8 33.1077 16.3692H30.7692C31.1385 15.9385 31.5077 15.5692 32 15.1385C29.9077 13.1692 27.0769 12 23.9385 12C17.4154 12.1846 12 17.4154 12 24C12 30.5846 17.3538 36 24 36C27.1385 36 29.9077 34.7692 32.0615 32.8615C32.4923 32.4923 32.8615 32.0615 33.2923 31.5692H30.8308C30.5231 31.2 30.2154 30.7692 29.9692 30.3385H34.1538C34.4 29.9692 34.6462 29.5385 34.8308 29.0462H29.2308C29.0462 28.6769 28.8615 28.2462 28.7385 27.7538H35.3231C35.6923 26.6462 35.9385 25.4154 35.9385 24.0615Z" fill="#C8191C"/>
<path d="M28.2464 27.0771L28.431 25.9694C28.3695 25.9694 28.2464 26.0309 28.1233 26.0309C27.6925 26.0309 27.631 25.7847 27.6925 25.6617L28.0618 23.4463H28.7387L28.9233 22.2155H28.3079L28.431 21.4771H27.1387C27.1387 21.4771 26.4002 25.6617 26.4002 26.154C26.4002 26.8924 26.831 27.2617 27.4464 27.2617C27.8156 27.2617 28.1233 27.1386 28.2464 27.0771Z" fill="white"/>
<path d="M28.6767 25.0461C28.6767 26.8307 29.9075 27.2615 30.8921 27.2615C31.8152 27.2615 32.2459 27.0769 32.2459 27.0769L32.4921 25.8461C32.4921 25.8461 31.8152 26.1538 31.1382 26.1538C29.7229 26.1538 29.969 25.1077 29.969 25.1077H32.5536C32.5536 25.1077 32.7382 24.3077 32.7382 23.9384C32.7382 23.1384 32.3075 22.0923 30.8921 22.0923C29.6613 22.0307 28.6767 23.4461 28.6767 25.0461ZM30.8921 23.2C31.569 23.2 31.4459 24 31.4459 24.0615H30.0305C30.0921 24 30.2152 23.2 30.8921 23.2Z" fill="white"/>
<path d="M38.9536 27.077L39.1998 25.6616C39.1998 25.6616 38.5844 25.9693 38.0921 25.9693C37.2305 25.9693 36.7998 25.2923 36.7998 24.4923C36.7998 22.9539 37.5382 22.1539 38.4613 22.1539C39.0767 22.1539 39.6305 22.5231 39.6305 22.5231L39.8152 21.1693C39.8152 21.1693 39.0767 20.8616 38.3382 20.8616C36.8613 20.8616 35.4459 22.1539 35.4459 24.5539C35.4459 26.1539 36.1844 27.2 37.7228 27.2C38.2767 27.2616 38.9536 27.077 38.9536 27.077Z" fill="white"/>
<path d="M21.2918 22.0308C20.4303 22.0308 19.7534 22.2769 19.7534 22.2769L19.5687 23.3846C19.5687 23.3846 20.1226 23.1385 20.9841 23.1385C21.4149 23.1385 21.7841 23.2 21.7841 23.5692C21.7841 23.8154 21.7226 23.8769 21.7226 23.8769H21.1687C20.061 23.8769 18.8918 24.3077 18.8918 25.7846C18.8918 26.9538 19.6303 27.2 20.1226 27.2C20.9841 27.2 21.4149 26.6461 21.4764 26.6461L21.4149 27.1385H22.461L22.9534 23.6308C22.9534 22.0923 21.7226 22.0308 21.2918 22.0308ZM21.538 24.8615C21.538 25.0461 21.4149 26.0923 20.6764 26.0923C20.3072 26.0923 20.1841 25.7846 20.1841 25.6C20.1841 25.2923 20.3687 24.8615 21.3534 24.8615C21.4764 24.8615 21.538 24.8615 21.538 24.8615Z" fill="white"/>
<path d="M24.1851 27.2C24.4928 27.2 26.0928 27.2615 26.0928 25.5385C26.0928 23.9385 24.5543 24.2462 24.5543 23.6308C24.5543 23.3231 24.8005 23.2 25.2313 23.2C25.4159 23.2 26.0928 23.2615 26.0928 23.2615L26.2774 22.0923C26.2774 22.0923 25.8466 21.9692 25.0466 21.9692C24.1236 21.9692 23.1389 22.3385 23.1389 23.6308C23.1389 25.1077 24.7389 24.9846 24.7389 25.5385C24.7389 25.9077 24.3082 25.9692 24.0005 25.9692C23.4466 25.9692 22.8313 25.7846 22.8313 25.7846L22.6466 26.9539C22.7697 27.0769 23.1389 27.2 24.1851 27.2Z" fill="white"/>
<path d="M49.5382 21.0461L49.2921 22.7692C49.2921 22.7692 48.7997 22.1538 48.0613 22.1538C46.8921 22.1538 45.9074 23.5692 45.9074 25.2308C45.9074 26.2769 46.3997 27.3231 47.5074 27.3231C48.2459 27.3231 48.7382 26.8308 48.7382 26.8308L48.6767 27.2615H49.969L50.8921 21.1692L49.5382 21.0461ZM48.9228 24.3692C48.9228 25.0461 48.6151 25.9692 47.8767 25.9692C47.4459 25.9692 47.1997 25.6 47.1997 24.9231C47.1997 23.8769 47.6305 23.2615 48.2459 23.2615C48.6767 23.3231 48.9228 23.6308 48.9228 24.3692Z" fill="white"/>
<path d="M14.339 27.1385L15.0774 22.5846L15.2005 27.1385H16.062L17.7236 22.5846L17.0466 27.1385H18.4005L19.4466 21.0461H17.3543L16.062 24.8L16.0005 21.0461H14.1543L13.1082 27.1385H14.339Z" fill="white"/>
<path d="M34.0308 27.1384C34.4 25.0461 34.4615 23.323 35.3846 23.6307C35.5077 22.8307 35.6923 22.4615 35.8154 22.1538H35.5692C35.0154 22.1538 34.5231 22.8923 34.5231 22.8923L34.6462 22.2153H33.4154L32.6154 27.1384H34.0308Z" fill="white"/>
<path d="M41.9072 22.0308C41.0457 22.0308 40.3687 22.2769 40.3687 22.2769L40.1841 23.3846C40.1841 23.3846 40.738 23.1385 41.5995 23.1385C42.0303 23.1385 42.3995 23.2 42.3995 23.5692C42.3995 23.8154 42.338 23.8769 42.338 23.8769H41.7841C40.6764 23.8769 39.5072 24.3077 39.5072 25.7846C39.5072 26.9538 40.2457 27.2 40.738 27.2C41.5995 27.2 42.0303 26.6461 42.0918 26.6461L42.0303 27.1385H43.1995L43.6918 23.6308C43.6918 22.0923 42.338 22.0308 41.9072 22.0308ZM42.2149 24.8615C42.2149 25.0461 42.0918 26.0923 41.3534 26.0923C40.9841 26.0923 40.861 25.7846 40.861 25.6C40.861 25.2923 41.0457 24.8615 42.0303 24.8615C42.1534 24.8615 42.1534 24.8615 42.2149 24.8615Z" fill="white"/>
<path d="M44.6774 27.1384C45.0466 25.0461 45.1082 23.323 46.0313 23.6307C46.1543 22.8307 46.3389 22.4615 46.462 22.1538H46.2159C45.662 22.1538 45.1697 22.8923 45.1697 22.8923L45.2928 22.2153H44.062L43.262 27.1384H44.6774Z" fill="white"/>
</svg>
