<svg width="63" height="48" viewBox="0 0 63 48" fill="none" xmlns="http://www.w3.org/2000/svg">
<rect width="63" height="48" rx="4" fill="#F2F2FA"/>
<path d="M31.0926 32.8737C33.5012 30.6553 35.0224 27.4861 35.0224 24C35.0224 20.4505 33.5012 17.2814 31.0926 15.1263C28.9376 13.2248 26.1487 12.0205 23.0429 12.0205C16.3876 12.0205 11 17.4081 11 24C11 30.6553 16.3876 36.0429 23.0429 36.0429C26.1487 35.9795 28.9376 34.7753 31.0926 32.8737Z" fill="#3362AB"/>
<path d="M31.0921 32.8737C33.5007 30.6552 35.0219 27.486 35.0219 23.9999C35.0219 20.4505 33.5007 17.2813 31.0921 15.1262" fill="#3362AB"/>
<path d="M31.0921 32.8737C33.5007 30.6552 35.0219 27.486 35.0219 23.9999C35.0219 20.4505 33.5007 17.2813 31.0921 15.1262" stroke="#3362AB" stroke-width="0.3097"/>
<path d="M39.1429 11.957C36.0371 11.957 33.1848 13.1613 31.0931 15.0628C30.6494 15.4431 30.2691 15.8868 29.8888 16.3305H32.2974C32.6143 16.7108 32.9312 17.1545 33.1848 17.5982H28.9381C28.6845 17.9785 28.431 18.4222 28.2409 18.8659H33.882C34.0721 19.3095 34.2623 19.6898 34.3891 20.1335H27.7338C27.607 20.5772 27.4803 20.9575 27.3535 21.4012H34.706C34.8961 22.2252 34.9595 23.0492 34.9595 23.9365C34.9595 25.2676 34.7694 26.5353 34.3257 27.7396H27.6704C27.7972 28.1833 27.9873 28.6269 28.1775 29.0072H33.8186C33.6285 29.4509 33.3749 29.8946 33.1214 30.2749H28.8747C29.1282 30.7186 29.4451 31.1623 29.7621 31.5426H32.1707C31.7903 31.9863 31.41 32.43 30.9663 32.8103C33.1214 34.7118 35.9103 35.9161 39.0161 35.9161C45.6714 35.9161 50.9956 30.5285 50.9956 23.8732C51.1857 17.3446 45.7981 11.957 39.1429 11.957Z" fill="#C9191B"/>
<path d="M21.5219 26.9156H20.0007L20.8881 22.2252L18.8598 26.9156H17.5288L17.2752 22.2886L16.3878 26.9156H15.0568L16.1977 20.8308H18.5429L18.6697 24.6338L20.3176 20.8308H22.7262L21.5219 26.9156Z" fill="white"/>
<path d="M38.2552 26.9155C37.8749 27.0423 37.4946 27.1056 37.1777 27.1056C36.4171 27.1056 35.9734 26.7253 35.9734 26.0281C35.9734 25.9014 35.9734 25.7112 36.0368 25.5844L36.1002 25.0774L36.1636 24.6971L36.8608 20.894H38.3186L38.1285 22.035H38.8891L38.6989 23.2392H37.9383L37.558 25.3309C37.558 25.3943 37.558 25.5211 37.558 25.5211C37.558 25.7746 37.7482 25.9014 38.0651 25.9014C38.2552 25.9014 38.382 25.9014 38.4454 25.838L38.2552 26.9155Z" fill="white"/>
<path d="M42.5656 22.0351C42.4388 21.9717 42.4388 21.9717 42.3754 21.9717C42.312 21.9717 42.2486 21.9717 42.2486 21.9717C42.1853 21.9717 42.1219 21.9717 42.0585 21.9717C41.5514 21.9717 41.2345 22.1618 40.7274 22.7957L40.8542 22.0351H39.6499L38.7625 26.979H40.2837C40.7908 23.9366 41.0443 23.4295 41.7416 23.4295C41.8049 23.4295 41.8683 23.4295 41.9317 23.4295L42.1219 23.4929L42.5656 22.0351Z" fill="white"/>
<path d="M32.2964 23.5562C32.2964 24.19 32.6767 24.6337 33.4374 24.9506C34.0712 25.2042 34.1346 25.2675 34.1346 25.5211C34.1346 25.838 33.881 25.9648 33.2472 25.9648C32.8035 25.9648 32.3598 25.9014 31.9161 25.7746L31.726 26.9155H31.7894L32.0429 26.9789C32.1063 26.9789 32.2964 27.0423 32.4232 27.0423C32.8035 27.0423 33.057 27.1057 33.2472 27.1057C34.8318 27.1057 35.5924 26.5986 35.5924 25.4577C35.5924 24.7605 35.2755 24.3802 34.5149 24.0632C33.881 23.8097 33.8176 23.7463 33.8176 23.4928C33.8176 23.2393 34.0712 23.1125 34.5782 23.1125C34.8952 23.1125 35.2755 23.1125 35.6558 23.1759L35.8459 22.035C35.4656 21.9716 34.8952 21.9082 34.5149 21.9082C32.8669 21.9082 32.2964 22.6688 32.2964 23.5562Z" fill="white"/>
<path d="M25.3252 24.7605C25.1351 24.7605 25.0717 24.7605 25.0083 24.7605C24.1843 24.7605 23.7406 25.014 23.7406 25.5211C23.7406 25.838 23.9308 26.0281 24.2477 26.0281C24.8182 25.9648 25.2618 25.4577 25.3252 24.7605ZM26.4027 26.9155H25.1351L25.1985 26.4084C24.8182 26.7888 24.3111 26.9789 23.6139 26.9789C22.7899 26.9789 22.2828 26.4084 22.2828 25.6478C22.2828 24.4435 23.2336 23.7463 24.8815 23.7463C25.0717 23.7463 25.2618 23.7463 25.5154 23.8097C25.5788 23.6196 25.5787 23.5562 25.5787 23.4928C25.5787 23.1759 25.3252 23.0491 24.628 23.0491C24.1843 23.0491 23.7406 23.1125 23.4237 23.1759L23.2336 23.2393L23.1068 23.3026L23.2969 22.1617C24.0576 21.9716 24.5012 21.9082 25.0717 21.9082C26.3394 21.9082 27.0366 22.4153 27.0366 23.366C27.0366 23.6196 27.0366 23.8097 26.9098 24.3168L26.5929 26.0915L26.5295 26.4084L26.4661 26.662V26.8521L26.4027 26.9155Z" fill="white"/>
<path d="M30.5219 23.8733C30.5219 23.7465 30.5219 23.6831 30.5219 23.6197C30.5219 23.2394 30.2684 22.9859 29.8247 22.9859C29.3176 22.9859 29.0007 23.3028 28.874 23.8733H30.5219ZM31.2825 26.8523C30.7755 26.9791 30.2684 27.0424 29.7613 27.0424C28.1134 27.0424 27.226 26.2818 27.226 24.824C27.226 23.1127 28.3035 21.845 29.8247 21.845C31.029 21.845 31.853 22.5422 31.853 23.6197C31.853 24 31.7896 24.3169 31.6628 24.824H28.6838C28.6838 24.8874 28.6838 24.9508 28.6838 24.9508C28.6838 25.5212 29.1275 25.8381 30.0149 25.8381C30.5219 25.8381 31.029 25.7114 31.5995 25.5212L31.2825 26.8523Z" fill="white"/>
<path d="M45.6711 24.0632C45.6711 23.5562 45.481 23.0491 44.8471 23.0491C44.0865 23.0491 43.6428 23.9365 43.6428 24.7605C43.6428 25.4577 43.9598 25.9014 44.5302 25.9014C44.8471 25.9014 45.5444 25.4577 45.6711 24.6971C45.6711 24.5069 45.6711 24.2534 45.6711 24.0632ZM47.2557 24.6971C47.0022 26.3451 45.8613 27.1057 44.3401 27.1057C42.6287 27.1057 41.9949 26.0915 41.9949 24.8239C41.9949 23.0491 43.1358 21.9082 44.9105 21.9082C46.4951 21.9082 47.2557 22.859 47.2557 24.1266C47.3191 24.3802 47.3191 24.3802 47.2557 24.6971Z" fill="white"/>
</svg>
