<svg width="63" height="48" viewBox="0 0 63 48" fill="none" xmlns="http://www.w3.org/2000/svg">
<rect width="63" height="48" rx="4" fill="#F2F2FA"/>
<path d="M26.3103 23.2177C26.2061 23.9988 25.5812 23.9988 25.0084 23.9988H24.696L24.9564 22.4887C24.9564 22.3845 25.0605 22.3324 25.1646 22.3324H25.3209C25.7375 22.3324 26.102 22.3324 26.3103 22.5407C26.3103 22.749 26.3103 22.9573 26.3103 23.2177ZM26.0499 21.1348H23.8108C23.6546 21.1348 23.5504 21.2389 23.4983 21.3951L22.6131 27.1231C22.6131 27.2273 22.6652 27.3314 22.8214 27.3314H23.8628C24.0191 27.3314 24.1232 27.2273 24.1753 27.071L24.4356 25.5089C24.4356 25.3526 24.5919 25.2485 24.7481 25.2485H25.4771C26.9351 25.2485 27.7683 24.5195 28.0286 23.1135C28.1328 22.4887 28.0286 22.02 27.7683 21.6555C27.3517 21.3431 26.7789 21.1348 26.0499 21.1348Z" fill="#263577"/>
<path d="M31.2051 25.3006C31.101 25.9254 30.6323 26.342 30.0074 26.342C29.695 26.342 29.4347 26.2379 29.2784 26.0296C29.1222 25.8213 29.0701 25.5609 29.1222 25.3006C29.2264 24.6757 29.695 24.2591 30.3199 24.2591C30.6323 24.2591 30.8927 24.3633 31.0489 24.5716C31.153 24.7278 31.2572 24.9881 31.2051 25.3006ZM32.6631 23.2177H31.6217C31.5176 23.2177 31.4655 23.2697 31.4134 23.3739L31.3613 23.6863L31.3093 23.5822C31.101 23.2697 30.5802 23.1135 30.0595 23.1135C28.8619 23.1135 27.8725 23.9988 27.6642 25.2485C27.56 25.8734 27.7162 26.4462 28.0808 26.8627C28.3932 27.2273 28.8618 27.3835 29.4346 27.3835C30.372 27.3835 30.8927 26.7586 30.8927 26.7586L30.8406 27.071C30.8406 27.1752 30.8927 27.2793 31.0489 27.2793H31.9862C32.1424 27.2793 32.2466 27.1752 32.2986 27.019L32.8714 23.3739C32.8714 23.3218 32.8194 23.2177 32.6631 23.2177Z" fill="#263577"/>
<path d="M38.3377 23.2178H37.2442C37.14 23.2178 37.0359 23.2698 36.9838 23.374L35.5258 25.561L34.9009 23.4781C34.8488 23.3219 34.7447 23.2698 34.5885 23.2698H33.547C33.4429 23.2698 33.3387 23.374 33.3908 23.5302L34.5885 26.967L33.4949 28.5292C33.3908 28.6333 33.4949 28.8416 33.6512 28.8416H34.7447C34.8488 28.8416 34.953 28.7895 35.0051 28.6854L38.546 23.5302C38.5981 23.374 38.4939 23.2178 38.3377 23.2178Z" fill="#263577"/>
<path d="M42.1396 23.2177C42.0354 23.9988 41.4106 23.9988 40.8378 23.9988H40.5253L40.7857 22.4887C40.7857 22.3845 40.8898 22.3324 40.994 22.3324H41.1502C41.5668 22.3324 41.9313 22.3324 42.1396 22.5407C42.1916 22.749 42.1916 22.9573 42.1396 23.2177ZM41.8792 21.1348H39.6401C39.4839 21.1348 39.3797 21.2389 39.3277 21.3951L38.4424 27.1231C38.4424 27.2273 38.4945 27.3314 38.6507 27.3314H39.7963C39.9004 27.3314 40.0046 27.2793 40.0046 27.1231L40.265 25.5089C40.265 25.3526 40.4212 25.2485 40.5774 25.2485H41.3064C42.7644 25.2485 43.5976 24.5195 43.858 23.1135C43.9621 22.4887 43.858 22.02 43.5976 21.6555C43.2331 21.3431 42.6603 21.1348 41.8792 21.1348Z" fill="#2199D6"/>
<path d="M47.0865 25.3006C46.9823 25.9254 46.5137 26.342 45.8888 26.342C45.5764 26.342 45.316 26.2379 45.1598 26.0296C45.0036 25.8213 44.9515 25.5609 45.0036 25.3006C45.1077 24.6757 45.5764 24.2591 46.2013 24.2591C46.5137 24.2591 46.7741 24.3633 46.9303 24.5716C47.0344 24.7278 47.1386 24.9881 47.0865 25.3006ZM48.5445 23.2177H47.5031C47.3989 23.2177 47.3468 23.2697 47.2948 23.3739L47.2427 23.6863L47.1906 23.5822C46.9823 23.2697 46.4616 23.1135 45.9409 23.1135C44.7432 23.1135 43.7538 23.9988 43.5456 25.2485C43.4414 25.8734 43.5976 26.4462 43.9621 26.8627C44.2746 27.2273 44.7432 27.3835 45.316 27.3835C46.2533 27.3835 46.774 26.7586 46.774 26.7586L46.722 27.071C46.722 27.1752 46.7741 27.2793 46.9303 27.2793H47.8676C48.0238 27.2793 48.1279 27.1752 48.18 27.019L48.7528 23.3739C48.7528 23.3218 48.6487 23.2177 48.5445 23.2177Z" fill="#2199D6"/>
<path d="M49.7931 21.291L48.8558 27.1231C48.8558 27.2273 48.9079 27.3314 49.0641 27.3314H50.0014C50.1576 27.3314 50.2617 27.2273 50.3138 27.071L51.199 21.3431C51.199 21.2389 51.147 21.1348 50.9908 21.1348H49.9493C49.8972 21.1348 49.8452 21.2389 49.7931 21.291Z" fill="#2199D6"/>
<path d="M13.3433 28.425L13.4995 27.3314H13.135H11.3125L12.5622 19.3643C12.5622 19.3643 12.5622 19.3123 12.6143 19.3123H12.6664H15.7386C16.728 19.3123 17.457 19.5205 17.8215 19.9371C17.9778 20.1454 18.0819 20.3537 18.134 20.562C18.186 20.8224 18.186 21.0827 18.134 21.4472V21.6555L18.2902 21.7597C18.4464 21.8117 18.5506 21.9159 18.6547 22.02C18.8109 22.1762 18.9151 22.3845 18.9151 22.6449C18.9671 22.9053 18.9671 23.2177 18.863 23.5822C18.7588 23.9988 18.6547 24.3112 18.4985 24.6237C18.3423 24.884 18.134 25.0923 17.9257 25.3006C17.7174 25.4568 17.405 25.561 17.1446 25.6651C16.8322 25.7172 16.5197 25.7693 16.1552 25.7693H15.8949C15.7386 25.7693 15.5824 25.8213 15.4262 25.9255C15.3221 26.0296 15.2179 26.1858 15.1658 26.342V26.4462L14.8534 28.3729V28.425V28.477C14.8534 28.477 14.8534 28.477 14.8013 28.477H13.3433V28.425Z" fill="#263577"/>
<path d="M18.4986 21.4473C18.4986 21.4993 18.4986 21.5514 18.4465 21.6035C18.03 23.6864 16.6761 24.3633 14.9056 24.3633H14.0204C13.8121 24.3633 13.6038 24.5195 13.6038 24.7278L13.1351 27.6439L13.031 28.4771C13.031 28.6333 13.1351 28.7374 13.2393 28.7374H14.8535C15.0618 28.7374 15.2181 28.5812 15.2181 28.425V28.3208L15.5305 26.4462V26.3421C15.5826 26.1338 15.7388 26.0297 15.895 26.0297H16.1554C17.7175 26.0297 18.9152 25.4048 19.2276 23.5822C19.3839 22.8012 19.2797 22.1763 18.9152 21.7597C18.8111 21.6556 18.6548 21.5514 18.4986 21.4473Z" fill="#2199D6"/>
<path d="M18.0821 21.291C18.03 21.291 17.9779 21.2389 17.8738 21.2389C17.8217 21.2389 17.7175 21.1868 17.6655 21.1868C17.4051 21.1348 17.1447 21.1348 16.8844 21.1348H14.4891C14.437 21.1348 14.3849 21.1348 14.3328 21.1868C14.2287 21.2389 14.1245 21.3431 14.1245 21.4472L13.6038 24.6757V24.7798C13.6559 24.5716 13.8121 24.4153 14.0204 24.4153H14.9056C16.6761 24.4153 18.03 23.6863 18.4466 21.6555C18.4466 21.6034 18.4466 21.5513 18.4986 21.4993C18.3945 21.4472 18.2903 21.3951 18.1862 21.3431C18.1341 21.291 18.0821 21.291 18.0821 21.291Z" fill="#252C5E"/>
<path d="M14.1244 21.4474C14.1244 21.3433 14.2285 21.2391 14.3326 21.187C14.3847 21.187 14.4368 21.135 14.4889 21.135H16.8842C17.1446 21.135 17.457 21.135 17.6653 21.187C17.7174 21.187 17.8215 21.187 17.8736 21.2391C17.9256 21.2391 17.9777 21.2912 18.0819 21.2912C18.1339 21.2912 18.1339 21.2912 18.186 21.3433C18.2901 21.3953 18.3943 21.4474 18.4984 21.4995C18.6026 20.7184 18.4984 20.1977 18.0819 19.729C17.6132 19.2083 16.78 19 15.7386 19H12.6663C12.458 19 12.2497 19.1562 12.2497 19.3645L11 27.3837C11 27.5399 11.1041 27.6961 11.2604 27.6961H13.135L13.6036 24.6759L14.1244 21.4474Z" fill="#263577"/>
</svg>
