<svg width="63" height="48" viewBox="0 0 63 48" fill="none" xmlns="http://www.w3.org/2000/svg">
<rect width="63" height="48" rx="4" fill="#F2F2FA"/>
<path d="M48.3101 17.5349H45.7955C45.0353 17.5349 44.4505 17.7688 44.0996 18.5291L39.3044 29.4647H42.6961C42.6961 29.4647 43.2809 28.0027 43.3979 27.6518C43.7488 27.6518 47.0821 27.6518 47.5499 27.6518C47.6669 28.0612 47.9593 29.4062 47.9593 29.4062H51.0002L48.3101 17.5349ZM44.3336 25.1957C44.626 24.4939 45.6201 21.8624 45.6201 21.8624C45.6201 21.9209 45.9125 21.1606 46.0295 20.7513L46.2634 21.8039C46.2634 21.8039 46.9066 24.6694 47.0236 25.2542H44.3336V25.1957Z" fill="#3362AB"/>
<path d="M39.5378 25.5467C39.5378 28.0028 37.3156 29.6403 33.8653 29.6403C32.4033 29.6403 30.9998 29.3479 30.2396 28.997L30.7074 26.3069L31.1168 26.4824C32.1694 26.9502 32.8712 27.1256 34.1577 27.1256C35.0934 27.1256 36.0875 26.7748 36.0875 25.9561C36.0875 25.4297 35.6782 25.0789 34.3916 24.4941C33.1636 23.9093 31.5261 22.9736 31.5261 21.2777C31.5261 18.9386 33.8068 17.3596 37.0232 17.3596C38.2512 17.3596 39.3039 17.5935 39.9471 17.8859L39.4793 20.459L39.2454 20.2251C38.6606 19.9912 37.9004 19.7573 36.7893 19.7573C35.5612 19.8157 34.9764 20.3421 34.9764 20.8099C34.9764 21.3362 35.6782 21.7456 36.7893 22.2719C38.6606 23.1491 39.5378 24.1432 39.5378 25.5467Z" fill="#3362AB"/>
<path d="M11 17.6521L11.0585 17.4182H16.0877C16.7894 17.4182 17.3158 17.6521 17.4912 18.4124L18.6023 23.6755C17.4912 20.8685 14.9181 18.5878 11 17.6521Z" fill="#F9B50B"/>
<path d="M25.6788 17.535L20.5911 29.4063H17.1408L14.2169 19.4649C16.3221 20.8099 18.0765 22.9151 18.7198 24.3771L19.0707 25.6052L22.2285 17.4766H25.6788V17.535Z" fill="#3362AB"/>
<path d="M27.023 17.4766H30.2394L28.1926 29.4063H24.9763L27.023 17.4766Z" fill="#3362AB"/>
</svg>
