<svg width="30" height="30" viewBox="0 0 30 30" fill="none" xmlns="http://www.w3.org/2000/svg">
<rect width="30" height="30" fill="#F5F5F5"/>
<g id="Mobile Banking Website">
<rect width="1440" height="6051" transform="translate(-1200 -2028)" fill="white"/>
<g id="Feature 1">
<g id="Group 17432">
<g id="Card">
<rect id="Base" x="-465" y="-271" width="482" height="322" rx="20" fill="url(#paint0_linear_0_1)"/>
<g id="Mask Group">
<g id="Mask Group_2">
<mask id="mask0_0_1" style="mask-type:alpha" maskUnits="userSpaceOnUse" x="-465" y="-271" width="482" height="322">
<rect id="Rectangle 4323" x="-465" y="-271" width="482" height="322" rx="20" fill="#8476E3"/>
</mask>
<g mask="url(#mask0_0_1)">
<g id="Group 17398">
<circle id="Ellipse 275" cx="-84.9523" cy="-9.28069" r="68.2015" transform="rotate(65 -84.9523 -9.28069)" stroke="#6657D2"/>
<circle id="Ellipse 276" cx="-73.2053" cy="-0.976364" r="68.2015" transform="rotate(65 -73.2053 -0.976364)" stroke="#6657D2"/>
<circle id="Ellipse 277" cx="-61.4564" cy="7.32784" r="68.2015" transform="rotate(65 -61.4564 7.32784)" stroke="#6657D2"/>
<circle id="Ellipse 278" cx="-49.7076" cy="15.6322" r="68.2015" transform="rotate(65 -49.7076 15.6322)" stroke="#6657D2"/>
<circle id="Ellipse 279" cx="-37.9605" cy="23.9365" r="68.2015" transform="rotate(65 -37.9605 23.9365)" stroke="#6657D2"/>
<circle id="Ellipse 280" cx="-26.2117" cy="32.2407" r="68.2015" transform="rotate(65 -26.2117 32.2407)" stroke="#6657D2"/>
<circle id="Ellipse 281" cx="-14.4647" cy="40.545" r="68.2015" transform="rotate(65 -14.4647 40.545)" stroke="#6657D2"/>
</g>
</g>
</g>
</g>
</g>
<g id="Group 17434">
<rect id="Rectangle 4495" x="-15" y="-14" width="120" height="120" rx="16" fill="#439F90"/>
<g id="Group 17410">
<rect id="Rectangle 217" width="30" height="30" rx="8" fill="white"/>
<g id="income">
<path id="Vector" d="M16.5366 15.1636C18.5116 15.1636 20.1182 13.5568 20.1182 11.5818C20.1182 9.60681 18.5116 8 16.5366 8C14.5616 8 12.9548 9.60681 12.9548 11.5818C12.9548 13.5568 14.5616 15.1636 16.5366 15.1636ZM16.1125 9.47644V9.37916C16.1125 9.14473 16.3022 8.95498 16.5366 8.95498C16.7708 8.95498 16.9608 9.14473 16.9608 9.37916V9.47701C17.4656 9.58532 17.8454 10.035 17.8454 10.5717C17.8454 10.8058 17.6554 10.9959 17.4212 10.9959C17.1868 10.9959 16.997 10.8058 16.997 10.5717C16.997 10.4221 16.8751 10.3002 16.7255 10.3002H16.3452C16.1956 10.3002 16.0737 10.4221 16.0737 10.5717C16.0737 10.6574 16.1147 10.7388 16.1837 10.7897L16.5366 11.051L17.3941 11.6856C17.6757 11.894 17.8454 12.2274 17.8477 12.5781V12.582C17.8496 12.8812 17.7351 13.1635 17.5247 13.3764C17.3686 13.5345 17.1735 13.6405 16.9608 13.6852V13.7845C16.9608 14.0189 16.7708 14.2086 16.5366 14.2086C16.3022 14.2086 16.1125 14.0189 16.1125 13.7845V13.6866C15.9055 13.6425 15.7151 13.5407 15.5613 13.3886C15.3484 13.1784 15.2302 12.8979 15.2285 12.5987C15.227 12.3646 15.4157 12.1734 15.6498 12.172H15.6526C15.8857 12.172 16.0754 12.3603 16.0768 12.5936C16.0774 12.74 16.1952 12.8634 16.3497 12.8634C16.5841 12.862 16.4968 12.8625 16.7295 12.8612C16.8801 12.86 17.0004 12.7378 16.9993 12.5877V12.5837C16.9987 12.4989 16.9577 12.418 16.8893 12.3674L16.5366 12.1064L15.6789 11.4718C15.395 11.2614 15.2254 10.9249 15.2254 10.5717C15.2254 10.0338 15.6063 9.5839 16.1125 9.47644Z" fill="#439F90"/>
<path id="Vector_2" d="M10.7329 17.2017C10.6241 17.0132 10.3826 16.9476 10.1929 17.057L8.19764 18.2088C8.0087 18.3182 7.94389 18.5598 8.05296 18.749L10.0923 22.2811C10.2014 22.47 10.4429 22.5349 10.6322 22.4258L12.6275 21.2737C12.8167 21.1646 12.8813 20.923 12.7722 20.7338L10.7329 17.2017Z" fill="#439F90"/>
<path id="Vector_3" d="M22.1661 16.4967C21.9741 16.23 21.6025 16.1698 21.3361 16.3618C20.5279 16.944 18.976 18.0622 18.8527 18.1513C18.7958 18.1996 18.7362 18.2435 18.674 18.2822C18.4299 18.4357 18.1468 18.5178 17.8513 18.5178H15.8195C15.5853 18.5178 15.3953 18.328 15.3953 18.0936C15.3953 17.8589 15.5856 17.6694 15.8195 17.6694H17.9924C18.3117 17.6694 18.5674 17.4036 18.5541 17.0837C18.5416 16.7803 18.2826 16.545 17.9789 16.545H16.3248C16.2128 16.4265 16.0901 16.3179 15.9586 16.2209C15.5064 15.8875 14.9476 15.6904 14.3428 15.6904C13.2673 15.6904 12.1972 16.368 11.7535 17.2724L13.4887 20.2776H16.7436C17.3827 20.2776 18.0122 20.1141 18.5662 19.7954C18.7582 19.6851 18.9638 19.5525 19.1867 19.3924C20.1204 18.7216 22.0295 17.3281 22.031 17.3272C22.2979 17.1355 22.3584 16.7633 22.1661 16.4967Z" fill="#439F90"/>
</g>
</g>
</g>
</g>
</g>
</g>
<defs>
<linearGradient id="paint0_linear_0_1" x1="-430.296" y1="-42.38" x2="-116.901" y2="-158.175" gradientUnits="userSpaceOnUse">
<stop stop-color="#8679E4"/>
<stop offset="1" stop-color="#7264D6"/>
</linearGradient>
</defs>
</svg>
