<svg width="170" height="170" viewBox="0 0 170 170" fill="none" xmlns="http://www.w3.org/2000/svg">
<g filter="url(#filter0_d_2_206)">
<circle cx="85" cy="70" r="45" fill="#7264D6"/>
</g>
<path d="M66.625 58C65.1821 58 64 59.2008 64 60.6667V79.3333C64 80.7991 65.1821 82 66.625 82H103.375C104.818 82 106 80.7991 106 79.3333V60.6667C106 59.2008 104.818 58 103.375 58H66.625ZM66.625 59.3333H103.375C104.113 59.3333 104.688 59.9164 104.688 60.6667V79.3333C104.688 80.0835 104.113 80.6667 103.375 80.6667H66.625C65.8865 80.6667 65.3125 80.0835 65.3125 79.3333V60.6667C65.3125 59.9164 65.8865 59.3333 66.625 59.3333ZM70.5625 60.6667V61.3333C70.5625 63.1821 69.1012 64.6667 67.2812 64.6667H66.625V75.3333H67.2812C69.1012 75.3333 70.5625 76.8177 70.5625 78.6667V79.3333H99.4375V78.6667C99.4375 76.8177 100.899 75.3333 102.719 75.3333H103.375V64.6667H102.719C100.899 64.6667 99.4375 63.1821 99.4375 61.3333V60.6667H70.5625ZM71.7417 62H80.2729C77.6007 63.6337 75.8125 66.6057 75.8125 70C75.8125 73.3951 77.6007 76.3667 80.2729 78H71.7417C71.4429 75.9852 69.9208 74.439 67.9375 74.1354V65.8646C69.9208 65.561 71.4429 64.0147 71.7417 62ZM84.9744 62C89.3389 62 92.875 65.58 92.875 70C92.875 74.4216 89.3389 78 84.9744 78C80.6084 78 77.125 74.4264 77.125 70C77.125 65.5752 80.6084 62 84.9744 62ZM89.6681 62H98.2583C98.5571 64.0147 100.079 65.561 102.062 65.8646V74.1354C100.079 74.439 98.5571 75.9852 98.2583 78H89.6937C92.3789 76.3671 94.1875 73.3965 94.1875 70C94.1878 69.9107 94.1703 69.822 94.1362 69.7396C94.0406 66.4546 92.2726 63.5913 89.6681 62ZM81.7546 64.6667V64.6797H81.7239V66.013H83.0723C84.2984 66.013 84.9196 66.6027 85.1436 67.3333H81.7546V68.6667H85.1436C84.9196 69.3975 84.2984 69.987 83.0723 69.987H81.7239V71.3203H82.0751L86.1228 75.3333L87.038 74.3802L83.8721 71.2396C85.3101 70.9438 86.2351 69.8607 86.4894 68.6667H88.2812V67.3333H86.4894C86.3877 66.8539 86.1696 66.3999 85.8613 66H88.2812V64.6667H81.7546ZM71.875 68.6667C71.1579 68.6667 70.5625 69.2715 70.5625 70C70.5625 70.7284 71.1579 71.3333 71.875 71.3333C72.5921 71.3333 73.1875 70.7284 73.1875 70C73.1875 69.2715 72.5921 68.6667 71.875 68.6667ZM98.125 68.6667C97.4079 68.6667 96.8125 69.2715 96.8125 70C96.8125 70.7284 97.4079 71.3333 98.125 71.3333C98.8421 71.3333 99.4375 70.7284 99.4375 70C99.4375 69.2715 98.8421 68.6667 98.125 68.6667Z" fill="white"/>
<defs>
<filter id="filter0_d_2_206" x="0" y="0" width="170" height="170" filterUnits="userSpaceOnUse" color-interpolation-filters="sRGB">
<feFlood flood-opacity="0" result="BackgroundImageFix"/>
<feColorMatrix in="SourceAlpha" type="matrix" values="0 0 0 0 0 0 0 0 0 0 0 0 0 0 0 0 0 0 127 0" result="hardAlpha"/>
<feOffset dy="15"/>
<feGaussianBlur stdDeviation="20"/>
<feColorMatrix type="matrix" values="0 0 0 0 0 0 0 0 0 0 0 0 0 0 0 0 0 0 0.1 0"/>
<feBlend mode="normal" in2="BackgroundImageFix" result="effect1_dropShadow_2_206"/>
<feBlend mode="normal" in="SourceGraphic" in2="effect1_dropShadow_2_206" result="shape"/>
</filter>
</defs>
</svg>
