<svg width="20" height="26" viewBox="0 0 20 26" fill="none" xmlns="http://www.w3.org/2000/svg">
<path d="M20 2.925C13.75 2.925 11.25 1.3 10 0C8.75 1.3 6.25 2.925 0 2.925V13.325C0 16.25 1.25 21.45 10 26C18.75 21.45 20 16.25 20 13.325V2.925Z" fill="white"/>
<path d="M10.6381 18.4703V19.4602C10.6381 19.758 10.396 19.9993 10.0971 19.9993C9.79381 20.0143 9.53577 19.781 9.52158 19.4788C9.52158 19.4726 9.5207 19.4664 9.5207 19.4602V18.488C8.28893 18.4483 7.11123 17.9754 6.19517 17.1535C6.06924 17.0262 5.99919 16.8548 6.00007 16.6763C5.99474 16.268 6.30956 15.9268 6.71838 15.8985C6.87977 15.902 7.03586 15.9577 7.1618 16.0576C7.83045 16.6179 8.64633 16.9759 9.51184 17.0917V13.5564C7.87122 13.1146 6.15967 12.5577 6.15967 10.5515C6.15967 8.91652 7.51648 7.68803 9.51181 7.54664V6.53912C9.51626 6.24303 9.75568 6.00443 10.0528 6C10.3516 6 10.5937 6.24128 10.5937 6.53912V7.59083C11.6162 7.64915 12.5917 8.04066 13.3694 8.70442C13.4954 8.83168 13.5654 9.00315 13.5645 9.18165C13.5601 9.59791 13.2196 9.93288 12.8019 9.93288C12.6715 9.9311 12.5456 9.89134 12.4383 9.81798C11.9 9.4079 11.2704 9.13481 10.6026 9.02256V12.1247C12.2432 12.5666 13.9991 13.2029 13.9991 15.2887C14.0345 16.8442 13.0591 18.3113 10.6381 18.4703ZM9.52067 8.95188C8.4831 9.03142 7.80026 9.62356 7.80026 10.4455C7.80026 11.2674 8.55405 11.5591 9.52067 11.8419V8.95188ZM10.6381 13.8923V17.1093C11.9505 16.9502 12.4117 16.1548 12.4117 15.4831C12.4205 14.5551 11.6402 14.1751 10.6381 13.8923Z" fill="#439F90"/>
</svg>
